<svg xmlns="http://www.w3.org/2000/svg" viewBox="0 0 5503 2735">
	<title>Web Standards Days</title>
	<g stroke="black" stroke-width="120" stroke-linecap="round" stroke-linejoin="round" fill="none">
		<polyline points="984,1323.272 984,1067.272"/>
		<polyline points="984,1067.272 522,811.272"/>
		<polyline points="522,811.272 60,1067.272"/>
		<polyline points="60,1067.272 522,1323.272"/>
		<polyline points="522,1323.272 522,1835.272"/>
		<polyline points="984,1579.272 522,1835.272"/>
		<polyline points="522,1835.272 60,1579.272"/>
		<polyline points="60,1579.272 60,1323.272"/>
	</g>
	<path fill="black" d="M1855.378 148.603c9.836 33.228 20.306 67.84 31.382 103.837s22.613 71.994 34.612 107.99 23.998 71.39 35.997 106.146c11.998 34.77 23.536 67.538 34.612 98.3 9.23-33.228 18.143-69.37 26.767-108.452 8.61-39.07 17.22-79.68 25.843-121.836 8.61-42.14 17.076-85.06 25.383-128.76 8.307-43.683 16.152-86.76 23.536-129.22h119.99c-21.518 115.693-45.472 226.915-71.893 333.666-26.422 106.766-55.915 208.757-88.48 305.975h-111.914c-47.68-124.29-93.828-259.97-138.45-407.044-22.8 74.46-45.904 145.23-69.312 212.29-23.42 67.076-46.827 131.99-70.234 194.753h-110.96c-33.156-97.22-62.78-199.21-88.868-305.976-26.09-106.75-49.87-217.972-71.36-333.665h124.606c7.384 41.852 15.23 84.612 23.536 128.296 8.307 43.698 16.917 86.617 25.844 128.758 8.913 42.155 18 82.926 27.23 122.298 9.23 39.387 18.46 75.687 27.69 108.914 11.68-31.382 23.535-64.45 35.534-99.223 12-34.757 23.84-70.147 35.535-106.145 11.682-35.997 22.917-71.836 33.69-107.53 10.758-35.68 20.767-70.147 29.997-103.375h99.684zM2243.765 477.19c0-42.457 6.303-79.68 18.922-111.683 12.604-31.987 29.377-58.61 50.304-79.84 20.912-21.228 44.91-37.223 71.995-47.995 27.07-10.76 54.76-16.152 83.07-16.152 66.455 0 118.287 20.623 155.524 61.84 37.223 41.232 55.84 102.77 55.84 184.6 0 6.16-.157 13.082-.46 20.77-.317 7.7-.78 14.623-1.385 20.767H2359.14c3.072 38.766 16.76 68.764 41.074 89.992 24.3 21.228 59.533 31.843 105.683 31.843 27.07 0 51.833-2.452 74.302-7.384 22.454-4.92 40.15-10.154 53.07-15.692l14.77 91.377c-6.158 3.087-14.624 6.317-25.383 9.69-10.773 3.39-23.075 6.462-36.92 9.23-13.845 2.77-28.77 5.077-44.766 6.924-16.007 1.845-32.304 2.768-48.918 2.768-42.458 0-79.378-6.316-110.76-18.922-31.382-12.604-57.226-30.142-77.532-52.61-20.306-22.455-35.39-48.92-45.227-79.378-9.85-30.46-14.768-63.833-14.768-100.147zm323.974-49.84c0-15.374-2.165-29.998-6.462-43.843-4.312-13.846-10.615-25.845-18.922-35.997-8.307-10.153-18.46-18.143-30.46-23.998-11.998-5.84-26.305-8.77-42.92-8.77-17.232 0-32.304 3.23-45.226 9.692s-23.854 14.927-32.767 25.383c-8.927 10.47-15.85 22.47-20.768 35.997-4.933 13.542-8.307 27.387-10.153 41.534h207.677zM3210.237 475.345c0 38.767-5.696 73.696-17.075 104.76-11.394 31.08-27.69 57.69-48.92 79.84-21.228 22.152-46.928 39.084-77.07 50.766-30.155 11.683-64.307 17.538-102.452 17.538-36.92 0-72.152-2.77-105.684-8.307-33.545-5.537-61.38-11.68-83.53-18.46V18.46L2887.185 0v250.133c12.923-6.764 28.758-12.922 47.535-18.46 18.765-5.538 39.53-8.307 62.304-8.307 33.834 0 64.148 6 90.916 17.998 26.767 12 49.062 29.075 66.917 51.227 17.84 22.153 31.526 48.776 41.073 79.84 9.534 31.08 14.307 65.39 14.307 102.915zm-114.452-1.846c0-47.377-9.39-84.917-28.15-112.607-18.778-27.69-48.458-41.534-89.07-41.534-18.46 0-35.853 2.768-52.15 8.306-16.31 5.538-29.39 11.696-39.227 18.46V623.95c7.99 1.845 18.302 3.547 30.92 5.075 12.605 1.543 27.835 2.308 45.69 2.308 41.217 0 73.52-13.99 96.914-41.996 23.378-27.994 35.073-66.602 35.073-115.838zM1600.63 1552.486c41.838 0 72.297-7.067 91.377-21.23 19.065-14.146 28.613-34.15 28.613-59.994 0-15.373-3.23-28.612-9.69-39.688s-15.692-21.07-27.69-29.998c-12-8.912-26.623-17.22-43.843-24.92-17.234-7.688-36.92-15.23-59.072-22.614-22.152-7.99-43.54-16.758-64.148-26.306-20.623-9.532-38.766-21.373-54.457-35.535-15.69-14.147-28.31-31.063-37.843-50.764-9.548-19.687-14.307-43.382-14.307-71.07 0-57.833 19.988-103.22 59.995-136.144 39.99-32.91 94.448-49.38 163.37-49.38 39.992 0 75.527 4.47 106.607 13.383 31.064 8.927 55.523 18.618 73.378 29.074l-35.997 94.145c-20.926-11.682-43.843-20.61-68.764-26.768-24.922-6.144-50.62-9.23-77.07-9.23-31.383 0-55.842 6.462-73.38 19.384s-26.305 31.08-26.305 54.458c0 14.162 2.913 26.306 8.77 36.458 5.84 10.153 14.146 19.24 24.92 27.23 10.76 8.004 23.378 15.388 37.843 22.15 14.45 6.78 30.3 13.24 47.535 19.384 30.142 11.076 57.066 22.31 80.762 33.69 23.68 11.393 43.684 24.92 59.995 40.61 16.297 15.692 28.757 34.152 37.382 55.38 8.61 21.23 12.922 46.93 12.922 77.07 0 57.848-20.465 102.613-61.38 134.298-40.93 31.7-100.766 47.534-179.523 47.534-26.463 0-50.62-1.7-72.454-5.076-21.85-3.39-41.232-7.543-58.15-12.46-16.93-4.918-31.54-9.995-43.84-15.23-12.317-5.22-22.153-9.994-29.537-14.306l34.15-95.07c16.613 9.23 39.068 18.46 67.38 27.69 28.292 9.23 62.444 13.846 102.45 13.846zM1921.09 1029.146l111.683-18.46v145.834h171.678v93.223h-171.677v196.6c0 38.766 6.144 66.455 18.46 83.07 12.302 16.613 33.23 24.92 62.765 24.92 20.306 0 38.304-2.148 53.995-6.46 15.69-4.3 28.15-8.308 37.382-12l18.46 88.608c-12.922 5.538-29.854 11.235-50.766 17.076-20.927 5.84-45.545 8.77-73.84 8.77-34.47 0-63.227-4.616-86.302-13.846-23.074-9.23-41.39-22.614-54.918-40.15-13.542-17.537-23.075-38.767-28.613-63.688s-8.307-53.375-8.307-85.378v-418.118zM2464.274 1144.52c36.92 0 67.985 4.615 93.224 13.846 25.224 9.23 45.37 22.15 60.456 38.766 15.07 16.614 25.844 36.776 32.305 60.457 6.46 23.693 9.69 49.696 9.69 77.992v292.59c-17.233 3.693-43.236 8.164-77.993 13.385-34.77 5.22-74 7.846-117.683 7.846-28.93 0-55.38-2.77-79.378-8.308s-44.463-14.45-61.38-26.767c-16.93-12.302-30.155-28.296-39.688-47.996-9.547-19.686-14.307-43.986-14.307-72.917 0-27.69 5.38-51.068 16.153-70.148 10.76-19.065 25.383-34.612 43.843-46.61s39.833-20.61 64.148-25.845c24.3-5.22 49.684-7.846 76.147-7.846 12.303 0 25.225.78 38.767 2.308 13.528 1.543 27.993 4.153 43.382 7.846v-18.46c0-12.922-1.545-25.224-4.616-36.92-3.087-11.682-8.466-21.993-16.152-30.92-7.7-8.913-17.854-15.836-30.46-20.77-12.618-4.917-28.468-7.383-47.534-7.383-25.844 0-49.54 1.846-71.07 5.538-21.547 3.692-39.084 8.004-52.61 12.922l-13.846-90.454c14.147-4.918 34.757-9.836 61.84-14.768 27.07-4.92 55.986-7.384 86.762-7.384zm9.23 416.273c34.454 0 60.602-1.846 78.456-5.538v-123.682c-6.158-1.847-15.086-3.692-26.768-5.538-11.696-1.846-24.618-2.77-38.766-2.77-12.316 0-24.777.924-37.382 2.77-12.62 1.846-23.998 5.235-34.15 10.153-10.153 4.932-18.316 11.854-24.46 20.767-6.158 8.928-9.23 20.162-9.23 33.69 0 26.464 8.308 44.765 24.922 54.918 16.613 10.154 39.068 15.23 67.38 15.23zM2776.06 1172.21c21.53-6.144 49.524-12 83.993-17.537 34.453-5.538 72.6-8.307 114.45-8.307 39.373 0 72.298 5.394 98.763 16.152 26.45 10.773 47.534 25.844 63.226 45.227 15.69 19.384 26.767 42.775 33.228 70.148 6.46 27.387 9.69 57.385 9.69 89.992v271.362H3067.73v-253.825c0-25.844-1.702-47.837-5.077-65.994-3.388-18.143-8.926-32.91-16.612-44.304-7.7-11.38-18.157-19.687-31.383-24.922-13.24-5.22-29.392-7.845-48.457-7.845-14.162 0-28.93.923-44.304 2.77-15.39 1.845-26.768 3.39-34.15 4.614v389.507H2776.06V1172.21zM3704.313 1624.48c-22.152 6.778-50 12.922-83.53 18.46-33.547 5.538-68.765 8.307-105.685 8.307-38.16 0-72.312-5.855-102.453-17.537-30.156-11.682-55.842-28.454-77.07-50.304-21.23-21.834-37.54-48.3-48.92-79.378-11.393-31.064-17.075-65.994-17.075-104.76 0-38.147 4.76-72.76 14.307-103.838 9.533-31.064 23.537-57.688 41.997-79.84 18.46-22.15 40.914-39.228 67.38-51.227 26.448-12 56.907-17.998 91.376-17.998 23.378 0 43.986 2.77 61.84 8.307 17.84 5.538 33.23 11.696 46.15 18.46V941.46L3704.313 923v701.48zm-320.28-227.98c0 49.235 11.68 87.843 35.073 115.836 23.378 28.007 55.683 41.996 96.915 41.996 17.84 0 33.07-.765 45.69-2.308 12.603-1.528 22.915-3.23 30.92-5.076v-276.9c-9.85-6.764-22.932-13.066-39.228-18.92-16.312-5.842-33.69-8.77-52.15-8.77-40.61 0-70.307 13.845-89.07 41.534-18.776 27.69-28.15 65.23-28.15 112.607zM3987.114 1144.52c36.92 0 67.985 4.615 93.224 13.846 25.224 9.23 45.37 22.15 60.456 38.766 15.07 16.614 25.844 36.776 32.305 60.457 6.46 23.693 9.69 49.696 9.69 77.992v292.59c-17.233 3.693-43.236 8.164-77.993 13.385-34.772 5.22-74 7.846-117.683 7.846-28.93 0-55.38-2.77-79.378-8.308s-44.463-14.45-61.38-26.767c-16.93-12.302-30.155-28.296-39.688-47.996-9.547-19.686-14.307-43.986-14.307-72.917 0-27.69 5.38-51.068 16.153-70.148 10.76-19.065 25.383-34.612 43.843-46.61s39.833-20.61 64.148-25.845c24.3-5.22 49.684-7.846 76.147-7.846 12.303 0 25.225.78 38.767 2.308 13.528 1.543 27.993 4.153 43.382 7.846v-18.46c0-12.922-1.545-25.224-4.616-36.92-3.087-11.682-8.466-21.993-16.152-30.92-7.7-8.913-17.854-15.836-30.46-20.77-12.618-4.917-28.468-7.383-47.534-7.383-25.844 0-49.54 1.846-71.07 5.538-21.547 3.692-39.084 8.004-52.61 12.922l-13.846-90.454c14.147-4.918 34.757-9.836 61.84-14.768 27.07-4.92 55.986-7.384 86.762-7.384zm9.23 416.273c34.453 0 60.6-1.846 78.455-5.538v-123.682c-6.16-1.847-15.087-3.692-26.77-5.538-11.695-1.846-24.617-2.77-38.765-2.77-12.316 0-24.777.924-37.382 2.77-12.62 1.846-23.998 5.235-34.15 10.153-10.153 4.932-18.316 11.854-24.46 20.767-6.158 8.928-9.23 20.162-9.23 33.69 0 26.464 8.308 44.765 24.922 54.918 16.614 10.154 39.07 15.23 67.38 15.23zM4573.955 1257.126c-9.23-3.07-22.008-6.303-38.305-9.69-16.31-3.376-35.232-5.077-56.765-5.077-12.316 0-25.382 1.24-39.228 3.69-13.845 2.467-23.536 4.615-29.074 6.46v386.738H4298.9v-459.654c21.53-7.99 48.457-15.532 80.763-22.613 32.305-7.065 68.143-10.613 107.53-10.613 7.383 0 15.992.46 25.843 1.385 9.836.923 19.686 2.163 29.536 3.69 9.836 1.544 19.383 3.39 28.613 5.54 9.23 2.162 16.613 4.152 22.15 6l-19.38 94.144zM5059.453 1624.48c-22.152 6.778-50 12.922-83.53 18.46-33.547 5.538-68.765 8.307-105.685 8.307-38.16 0-72.312-5.855-102.453-17.537-30.156-11.682-55.842-28.454-77.07-50.304-21.23-21.834-37.54-48.3-48.92-79.378-11.393-31.064-17.075-65.994-17.075-104.76 0-38.147 4.76-72.76 14.307-103.838 9.533-31.064 23.537-57.688 41.997-79.84 18.46-22.15 40.914-39.228 67.38-51.227 26.448-12 56.907-17.998 91.376-17.998 23.378 0 43.986 2.77 61.84 8.307 17.84 5.538 33.23 11.696 46.15 18.46V941.46L5059.453 923v701.48zm-320.28-227.98c0 49.235 11.68 87.843 35.073 115.836 23.378 28.007 55.683 41.996 96.915 41.996 17.84 0 33.07-.765 45.69-2.308 12.603-1.528 22.915-3.23 30.92-5.076v-276.9c-9.85-6.764-22.932-13.066-39.228-18.92-16.312-5.842-33.69-8.77-52.15-8.77-40.61 0-70.307 13.845-89.07 41.534-18.776 27.69-28.15 65.23-28.15 112.607zM5305.888 1558.947c29.535 0 51.067-3.533 64.61-10.614 13.527-7.067 20.306-19.225 20.306-36.46 0-15.993-7.24-29.218-21.69-39.688-14.466-10.455-38.305-21.834-71.533-34.15-20.305-7.384-38.924-15.23-55.84-23.536-16.932-8.31-31.54-18-43.843-29.076-12.316-11.076-22.008-24.46-29.074-40.15-7.082-15.69-10.615-34.915-10.615-57.688 0-44.304 16.297-79.22 48.92-104.76 32.607-25.527 76.91-38.305 132.91-38.305 28.297 0 55.38 2.625 81.226 7.846 25.844 5.235 45.227 10.312 58.148 15.23l-20.306 90.453c-12.316-5.54-28.008-10.615-47.073-15.23-19.08-4.615-41.232-6.922-66.456-6.922-22.772 0-41.232 3.85-55.38 11.537-14.162 7.7-21.23 19.542-21.23 35.535 0 8.005 1.385 15.086 4.154 21.23 2.77 6.157 7.53 11.853 14.308 17.074 6.764 5.235 15.69 10.47 26.767 15.69 11.076 5.236 24.604 10.615 40.612 16.153 26.45 9.85 48.92 19.542 67.38 29.074 18.46 9.55 33.688 20.308 45.687 32.307 12 11.998 20.768 25.7 26.306 41.073 5.538 15.388 8.307 33.848 8.307 55.38 0 46.15-17.075 81.08-51.227 104.76s-82.926 35.536-146.296 35.536c-42.458 0-76.608-3.548-102.452-10.614-25.845-7.067-44.002-12.764-54.457-17.076l19.383-93.223c16.614 6.778 36.458 13.24 59.533 19.383 23.076 6.16 49.382 9.23 78.918 9.23zM1988.29 2241.967c0 55.38-8.624 103.535-25.844 144.45-17.234 40.93-41.694 75.08-73.38 102.452-31.698 27.387-69.844 47.692-114.45 60.917-44.622 13.226-94.002 19.845-148.142 19.845-25.845 0-55.077-1.08-87.686-3.23-32.622-2.163-63.687-6.605-93.223-13.384v-621.18c29.536-6.763 60.918-11.075 94.146-12.92 33.23-1.847 62.766-2.77 88.61-2.77 53.533 0 102.452 6.316 146.756 18.92 44.304 12.62 82.29 32.307 113.99 59.073 31.685 26.768 56.145 60.616 73.38 101.53 17.22 40.93 25.844 89.69 25.844 146.297zm-426.426 224.29c6.764.62 15.69 1.08 26.767 1.384 11.077.318 26.148.462 45.23.462 78.137 0 136.444-19.844 174.907-59.533 38.448-39.69 57.688-95.214 57.688-166.603 0-72.6-18.777-128.297-56.303-167.062-37.54-38.767-95.69-58.15-174.447-58.15-34.468 0-59.072.924-73.84 2.77v446.73zM2245.62 2067.52c36.92 0 67.985 4.615 93.224 13.846 25.224 9.23 45.37 22.15 60.456 38.766 15.07 16.614 25.844 36.776 32.305 60.457 6.46 23.693 9.69 49.696 9.69 77.992v292.59c-17.232 3.693-43.235 8.164-77.992 13.385-34.77 5.22-74 7.846-117.683 7.846-28.93 0-55.38-2.77-79.378-8.308s-44.463-14.45-61.38-26.767c-16.93-12.302-30.155-28.296-39.688-47.996-9.547-19.686-14.307-43.986-14.307-72.917 0-27.69 5.38-51.068 16.152-70.148 10.758-19.065 25.382-34.612 43.842-46.61s39.833-20.61 64.148-25.845c24.3-5.22 49.684-7.846 76.147-7.846 12.302 0 25.224.78 38.766 2.308 13.528 1.543 27.993 4.153 43.382 7.846v-18.46c0-12.922-1.544-25.224-4.615-36.92-3.087-11.682-8.466-21.993-16.152-30.92-7.7-8.913-17.854-15.836-30.46-20.77-12.618-4.917-28.468-7.383-47.534-7.383-25.844 0-49.54 1.846-71.07 5.538-21.547 3.692-39.084 8.004-52.61 12.922l-13.846-90.454c14.147-4.918 34.757-9.836 61.84-14.768 27.07-4.92 55.986-7.384 86.762-7.384zm9.23 416.273c34.453 0 60.6-1.846 78.455-5.538v-123.682c-6.158-1.847-15.086-3.692-26.768-5.538-11.696-1.846-24.618-2.77-38.766-2.77-12.315 0-24.776.924-37.38 2.77-12.62 1.846-24 5.235-34.15 10.153-10.154 4.932-18.317 11.854-24.46 20.767-6.16 8.928-9.23 20.162-9.23 33.69 0 26.464 8.307 44.765 24.92 54.918 16.615 10.154 39.07 15.23 67.38 15.23zM2944.052 2079.52c-49.756 183.374-107.5 349.514-173.207 498.42-12.316 27.69-24.95 51.37-37.887 71.07-12.937 19.687-27.416 35.997-43.424 48.92-16.022 12.92-33.892 22.296-53.592 28.15-19.715 5.842-42.5 8.77-68.374 8.77-17.25 0-34.353-1.847-51.284-5.538-16.945-3.692-29.724-7.702-38.348-12l20.306-89.53c22.253 8.61 44.203 12.922 65.836 12.922 29.046 0 51.76-6.923 68.144-20.768 16.383-13.845 30.747-35.232 43.12-64.148-35.23-67.682-69.065-141.52-101.515-221.52-32.45-79.984-61.336-164.9-86.66-254.748h119.066c6.173 25.844 13.73 53.85 22.7 83.992 8.956 30.156 18.69 60.774 29.19 91.84 10.498 31.078 21.603 62 33.343 92.76 11.74 30.777 23.48 59.39 35.218 85.84 19.6-54.76 37.973-113.067 55.135-174.908 17.147-61.842 32.766-121.678 46.856-179.523h115.376zM3135.017 2481.947c29.535 0 51.067-3.533 64.61-10.614 13.527-7.067 20.306-19.225 20.306-36.46 0-15.993-7.24-29.218-21.69-39.688-14.466-10.455-38.305-21.834-71.533-34.15-20.306-7.384-38.925-15.23-55.84-23.536-16.933-8.31-31.542-18-43.844-29.076-12.316-11.076-22.008-24.46-29.074-40.15-7.082-15.69-10.615-34.915-10.615-57.688 0-44.304 16.297-79.22 48.92-104.76 32.607-25.527 76.91-38.305 132.91-38.305 28.297 0 55.38 2.625 81.226 7.846 25.844 5.235 45.227 10.312 58.148 15.23l-20.305 90.453c-12.316-5.54-28.008-10.615-47.073-15.23-19.08-4.615-41.232-6.922-66.456-6.922-22.772 0-41.232 3.85-55.38 11.537-14.162 7.7-21.23 19.542-21.23 35.535 0 8.005 1.385 15.086 4.154 21.23 2.77 6.157 7.528 11.853 14.307 17.074 6.764 5.235 15.69 10.47 26.767 15.69 11.076 5.236 24.604 10.615 40.612 16.153 26.45 9.85 48.92 19.542 67.38 29.074 18.46 9.55 33.688 20.308 45.687 32.307 12 11.998 20.768 25.7 26.306 41.073 5.537 15.388 8.306 33.848 8.306 55.38 0 46.15-17.075 81.08-51.227 104.76s-82.927 35.536-146.297 35.536c-42.458 0-76.608-3.548-102.452-10.614-25.844-7.067-44-12.764-54.456-17.076l19.383-93.223c16.614 6.778 36.458 13.24 59.533 19.383 23.076 6.16 49.38 9.23 78.917 9.23z"/>
</svg>
