<svg xmlns="http://www.w3.org/2000/svg" viewBox="0 0 5503 2735"><defs><linearGradient id="a" gradientUnits="userSpaceOnUse" x1="984" y1="1323.27" x2="984" y2="1067.27"><stop offset="0" stop-color="#c6f523"/><stop offset=".9" stop-color="#afe63a"/></linearGradient><linearGradient id="b" gradientUnits="userSpaceOnUse" x1="984" y1="1067.27" x2="522" y2="811.27"><stop offset="0" stop-color="#afe63a"/><stop offset=".9" stop-color="#81c36d"/></linearGradient><linearGradient id="c" gradientUnits="userSpaceOnUse" x1="522" y1="811.27" x2="60" y2="1067.27"><stop offset="0" stop-color="#81c36d"/><stop offset=".8" stop-color="#61afb4"/></linearGradient><linearGradient id="d" gradientUnits="userSpaceOnUse" x1="60" y1="1067.27" x2="522" y2="1323.27"><stop offset="0" stop-color="#61afb4"/><stop offset=".9" stop-color="#42a0da"/></linearGradient><linearGradient id="e" gradientUnits="userSpaceOnUse" x1="522" y1="1323.27" x2="522" y2="1835.27"><stop offset="0" stop-color="#42a0da"/><stop offset=".8" stop-color="#3b84bb"/></linearGradient><linearGradient id="f" gradientUnits="userSpaceOnUse" x1="984" y1="1579.27" x2="522" y2="1835.27"><stop offset="0" stop-color="#386d9b"/><stop offset=".7" stop-color="#3b84bb"/></linearGradient><linearGradient id="g" gradientUnits="userSpaceOnUse" x1="522" y1="1835.27" x2="60" y2="1579.27"><stop offset=".3" stop-color="#3b84bb"/><stop offset=".9" stop-color="#366fa5"/></linearGradient><linearGradient id="h" gradientUnits="userSpaceOnUse" x1="60" y1="1579.27" x2="60" y2="1323.27"><stop offset="0" stop-color="#366fa5"/><stop offset="1" stop-color="#366998"/></linearGradient></defs><g stroke-width="120" stroke-linecap="round" stroke-linejoin="round" fill="none"><path stroke="url(#a)" d="M984 1323.27v-256"/><path stroke="url(#b)" d="M984 1067.27l-462-256"/><path stroke="url(#c)" d="M522 811.27l-462 256"/><path stroke="url(#d)" d="M60 1067.27l462 256"/><path stroke="url(#e)" d="M522 1323.27v512"/><path stroke="url(#f)" d="M984 1579.27l-462 256"/><path stroke="url(#g)" d="M522 1835.27l-462-256"/><path stroke="url(#h)" d="M60 1579.27v-256"/></g><path fill="#386d9b" d="M1855.38 148.6c9.83 33.23 20.3 67.84 31.38 103.84s22.61 72 34.61 107.99 24 71.39 36 106.15a7839.6 7839.6 0 0 0 34.6 98.3 2086.48 2086.48 0 0 0 26.78-108.46 8235.89 8235.89 0 0 0 25.84-121.83 9583.82 9583.82 0 0 0 25.38-128.76c8.31-43.69 16.16-86.76 23.54-129.22h119.99c-21.52 115.7-45.47 226.91-71.9 333.66-26.41 106.77-55.9 208.76-88.47 305.98H1941.2c-47.68-124.3-93.83-259.97-138.45-407.05a5780.19 5780.19 0 0 1-69.3 212.3 9845.11 9845.11 0 0 1-70.24 194.75h-110.96c-33.16-97.22-62.78-199.21-88.87-305.98-26.09-106.75-49.87-217.97-71.36-333.66h124.6a9839.66 9839.66 0 0 0 23.54 128.3c8.3 43.69 16.92 86.6 25.85 128.75 8.9 42.16 18 82.93 27.23 122.3a2769.76 2769.76 0 0 0 27.69 108.91 4390.1 4390.1 0 0 0 35.53-99.22A6104.6 6104.6 0 0 0 1692 359.51c11.69-36 22.92-71.84 33.7-107.53a4923.52 4923.52 0 0 0 30-103.38h99.68zm388.38 328.59c0-42.46 6.3-79.68 18.93-111.68 12.6-31.99 29.37-58.61 50.3-79.84 20.91-21.23 44.91-37.23 72-48 27.07-10.76 54.76-16.15 83.07-16.15 66.45 0 118.28 20.62 155.52 61.84 37.22 41.23 55.84 102.77 55.84 184.6 0 6.16-.16 13.08-.46 20.77-.32 7.7-.78 14.62-1.38 20.77h-318.44c3.07 38.76 16.76 68.76 41.07 89.99 24.3 21.23 59.54 31.84 105.69 31.84 27.07 0 51.83-2.45 74.3-7.38 22.45-4.92 40.15-10.16 53.07-15.7l14.77 91.38c-6.16 3.09-14.63 6.32-25.38 9.7a357.14 357.14 0 0 1-36.92 9.22 550.82 550.82 0 0 1-44.77 6.93 426.8 426.8 0 0 1-48.92 2.76c-42.46 0-79.38-6.31-110.76-18.92-31.38-12.6-57.23-30.14-77.53-52.6-20.3-22.46-35.4-48.93-45.23-79.39-9.85-30.46-14.77-63.83-14.77-100.14zm323.98-49.84c0-15.37-2.17-30-6.46-43.84-4.32-13.85-10.62-25.85-18.93-36a89.6 89.6 0 0 0-30.46-24c-12-5.84-26.3-8.77-42.92-8.77-17.23 0-32.3 3.23-45.22 9.7s-23.86 14.92-32.77 25.38a116.06 116.06 0 0 0-20.77 36 194.51 194.51 0 0 0-10.15 41.53h207.68zm642.5 48c0 38.76-5.7 73.7-17.08 104.76-11.4 31.08-27.69 57.69-48.92 79.84-21.23 22.15-46.93 39.08-77.07 50.76-30.15 11.68-64.3 17.54-102.45 17.54-36.92 0-72.15-2.77-105.68-8.3-33.55-5.54-61.39-11.69-83.54-18.47V18.46L2887.2 0v250.13c12.92-6.76 28.75-12.92 47.53-18.46 18.77-5.53 39.53-8.3 62.3-8.3 33.84 0 64.15 6 90.92 18 26.77 12 49.06 29.07 66.92 51.22 17.84 22.16 31.52 48.78 41.07 79.84 9.53 31.08 14.3 65.4 14.3 102.92zm-114.46-1.85c0-47.38-9.39-84.92-28.15-112.6-18.77-27.7-48.45-41.54-89.07-41.54-18.46 0-35.85 2.77-52.15 8.3-16.3 5.54-29.39 11.7-39.22 18.46v277.83c7.99 1.84 18.3 3.55 30.92 5.08 12.6 1.54 27.83 2.3 45.69 2.3 41.21 0 73.52-13.99 96.91-42 23.38-27.99 35.07-66.6 35.07-115.83zM1600.63 1552.48c41.84 0 72.3-7.06 91.38-21.23 19.06-14.14 28.61-34.15 28.61-59.99 0-15.37-3.23-28.61-9.69-39.69s-15.7-21.07-27.69-30c-12-8.9-26.62-17.22-43.84-24.92-17.24-7.68-36.92-15.23-59.08-22.6a790.68 790.68 0 0 1-64.14-26.32c-20.63-9.53-38.77-21.37-54.46-35.53-15.69-14.15-28.31-31.06-37.84-50.76-9.55-19.69-14.31-43.39-14.31-71.07 0-57.84 19.99-103.22 60-136.15 39.98-32.9 94.44-49.38 163.36-49.38 40 0 75.53 4.47 106.61 13.39 31.07 8.92 55.52 18.61 73.38 29.07l-36 94.14c-20.92-11.68-43.84-20.6-68.76-26.76a320.86 320.86 0 0 0-77.07-9.23c-31.39 0-55.84 6.46-73.38 19.38s-26.3 31.08-26.3 54.46c0 14.16 2.9 26.3 8.76 36.46 5.84 10.15 14.15 19.24 24.92 27.23 10.76 8 23.38 15.39 37.85 22.15a535.15 535.15 0 0 0 47.53 19.38c30.14 11.08 57.07 22.31 80.76 33.7 23.68 11.39 43.69 24.91 60 40.6a159.15 159.15 0 0 1 37.38 55.38c8.6 21.23 12.92 46.93 12.92 77.07 0 57.85-20.46 102.62-61.38 134.3-40.93 31.7-100.77 47.53-179.52 47.53-26.47 0-50.62-1.7-72.46-5.07-21.85-3.4-41.23-7.54-58.15-12.46-16.93-4.92-31.54-10-43.84-15.23-12.31-5.22-22.15-10-29.53-14.3l34.15-95.08c16.6 9.23 39.06 18.46 67.38 27.7 28.29 9.22 62.44 13.84 102.45 13.84zm320.46-523.34l111.68-18.46v145.84h171.68v93.22h-171.67v196.6c0 38.77 6.14 66.46 18.46 83.07 12.3 16.61 33.23 24.92 62.76 24.92 20.3 0 38.3-2.15 54-6.46 15.68-4.3 28.14-8.3 37.38-12l18.46 88.61c-12.93 5.54-29.86 11.24-50.77 17.08-20.93 5.84-45.55 8.77-73.84 8.77-34.47 0-63.23-4.62-86.3-13.85-23.08-9.23-41.4-22.61-54.92-40.15-13.54-17.54-23.07-38.77-28.61-63.69s-8.31-53.37-8.31-85.37v-418.12zm543.18 115.38c36.92 0 67.99 4.61 93.23 13.85 25.22 9.23 45.37 22.15 60.45 38.76 15.07 16.61 25.85 36.78 32.3 60.46 6.47 23.69 9.7 49.7 9.7 77.99v292.59c-17.23 3.7-43.24 8.16-78 13.38-34.76 5.22-74 7.85-117.68 7.85-28.93 0-55.38-2.77-79.38-8.3s-44.46-14.46-61.38-26.77c-16.93-12.3-30.15-28.3-39.68-48-9.55-19.69-14.31-43.99-14.31-72.92 0-27.69 5.38-51.07 16.15-70.15 10.76-19.06 25.38-34.6 43.84-46.6s39.84-20.61 64.15-25.85a361.7 361.7 0 0 1 76.15-7.84c12.3 0 25.23.78 38.77 2.3 13.53 1.55 28 4.16 43.38 7.85v-18.46c0-12.92-1.54-25.23-4.62-36.92a76.78 76.78 0 0 0-16.15-30.92c-7.7-8.91-17.85-15.84-30.46-20.77-12.62-4.92-28.47-7.38-47.53-7.38-25.85 0-49.54 1.84-71.07 5.53-21.55 3.7-39.09 8-52.61 12.92l-13.85-90.45c14.15-4.92 34.76-9.84 61.84-14.77 27.07-4.92 55.99-7.38 86.76-7.38zm9.23 416.27c34.46 0 60.6-1.84 78.46-5.54v-123.68c-6.16-1.85-15.09-3.69-26.77-5.54-11.7-1.84-24.62-2.77-38.76-2.77-12.32 0-24.78.93-37.39 2.77-12.62 1.85-24 5.24-34.15 10.16-10.15 4.93-18.31 11.85-24.46 20.76-6.15 8.93-9.23 20.17-9.23 33.7 0 26.46 8.31 44.76 24.93 54.91 16.6 10.16 39.06 15.23 67.38 15.23zm302.56-388.58c21.53-6.15 49.52-12 84-17.54 34.45-5.54 72.6-8.3 114.44-8.3 39.38 0 72.3 5.39 98.77 16.15 26.45 10.77 47.53 25.84 63.22 45.22 15.7 19.39 26.77 42.78 33.23 70.15 6.46 27.39 9.69 57.39 9.69 90v271.36h-111.68v-253.83c0-25.84-1.7-47.84-5.08-66-3.38-18.14-8.92-32.9-16.6-44.3-7.7-11.38-18.17-19.68-31.4-24.92-13.23-5.22-29.38-7.84-48.45-7.84-14.16 0-28.93.92-44.3 2.77a840.22 840.22 0 0 0-34.15 4.61v389.5h-111.69v-467.03zm928.25 452.27c-22.15 6.78-50 12.92-83.53 18.46-33.54 5.54-68.76 8.3-105.68 8.3-38.16 0-72.31-5.85-102.45-17.53-30.16-11.68-55.85-28.46-77.07-50.3-21.23-21.84-37.54-48.3-48.92-79.38-11.4-31.07-17.08-66-17.08-104.76 0-38.15 4.76-72.76 14.3-103.84 9.54-31.07 23.54-57.69 42-79.84a187.17 187.17 0 0 1 67.38-51.23c26.45-12 56.91-18 91.38-18 23.38 0 43.99 2.77 61.84 8.31 17.84 5.54 33.23 11.7 46.15 18.46V941.46L3704.31 923v701.48zm-320.28-227.98c0 49.23 11.68 87.84 35.08 115.83 23.37 28.01 55.68 42 96.91 42 17.84 0 33.07-.76 45.7-2.3 12.6-1.54 22.9-3.24 30.91-5.08v-276.9c-9.85-6.77-22.93-13.07-39.23-18.92-16.3-5.85-33.69-8.77-52.15-8.77-40.6 0-70.3 13.84-89.07 41.53-18.77 27.7-28.15 65.23-28.15 112.6zm603.08-251.98c36.92 0 67.99 4.61 93.23 13.84 25.22 9.23 45.37 22.15 60.45 38.77 15.07 16.61 25.85 36.78 32.3 60.46 6.47 23.69 9.7 49.7 9.7 77.99v292.59c-17.24 3.7-43.24 8.16-78 13.38-34.77 5.22-74 7.85-117.68 7.85-28.93 0-55.38-2.77-79.38-8.3s-44.46-14.46-61.38-26.78c-16.93-12.3-30.15-28.3-39.68-48-9.55-19.68-14.31-43.98-14.31-72.9 0-27.7 5.38-51.08 16.15-70.16 10.76-19.06 25.38-34.6 43.84-46.6s39.84-20.62 64.15-25.85a361.7 361.7 0 0 1 76.15-7.84c12.3 0 25.23.77 38.77 2.3 13.53 1.55 28 4.16 43.38 7.85v-18.46c0-12.92-1.55-25.23-4.62-36.92a76.78 76.78 0 0 0-16.15-30.92c-7.7-8.92-17.85-15.84-30.46-20.77-12.62-4.92-28.47-7.39-47.53-7.39-25.85 0-49.54 1.85-71.07 5.54-21.55 3.7-39.09 8-52.61 12.92l-13.85-90.45c14.15-4.92 34.76-9.84 61.84-14.77 27.07-4.92 55.99-7.38 86.76-7.38zm9.23 416.27c34.46 0 60.6-1.84 78.46-5.54v-123.68c-6.16-1.85-15.09-3.69-26.77-5.54-11.7-1.84-24.62-2.77-38.77-2.77-12.31 0-24.77.93-37.38 2.77-12.62 1.85-24 5.24-34.15 10.16-10.15 4.93-18.31 11.85-24.46 20.76-6.16 8.93-9.23 20.17-9.23 33.7 0 26.46 8.3 44.76 24.92 54.91 16.62 10.16 39.07 15.23 67.38 15.23zm577.62-303.67c-9.24-3.06-22.01-6.3-38.31-9.68-16.31-3.38-35.23-5.08-56.77-5.08-12.31 0-25.38 1.24-39.22 3.69-13.85 2.46-23.54 4.61-29.08 6.46v386.74H4298.9v-459.66c21.53-7.99 48.46-15.53 80.76-22.61 32.3-7.07 68.15-10.61 107.53-10.61 7.39 0 16 .46 25.85 1.38a494.3 494.3 0 0 1 29.53 3.69 398.77 398.77 0 0 1 28.61 5.54 261.34 261.34 0 0 1 22.15 6l-19.38 94.14zm485.5 367.36c-22.16 6.78-50 12.92-83.54 18.46-33.54 5.54-68.76 8.3-105.68 8.3-38.16 0-72.31-5.85-102.46-17.53-30.15-11.68-55.84-28.45-77.07-50.3-21.23-21.84-37.54-48.3-48.92-79.38-11.39-31.07-17.07-66-17.07-104.76 0-38.15 4.76-72.76 14.3-103.84 9.54-31.06 23.54-57.69 42-79.84a187.17 187.17 0 0 1 67.38-51.23c26.45-12 56.91-18 91.38-18 23.38 0 43.99 2.77 61.84 8.31 17.84 5.54 33.23 11.7 46.15 18.46V941.46L5059.45 923v701.48zm-320.29-227.98c0 49.23 11.68 87.84 35.08 115.84 23.37 28 55.68 42 96.91 42 17.84 0 33.07-.77 45.7-2.32 12.6-1.52 22.9-3.23 30.91-5.07v-276.9c-9.85-6.77-22.93-13.07-39.23-18.92-16.3-5.85-33.69-8.77-52.15-8.77-40.6 0-70.3 13.84-89.07 41.53-18.77 27.7-28.15 65.23-28.15 112.6zm566.72 162.45c29.53 0 51.06-3.54 64.6-10.62 13.53-7.07 20.31-19.22 20.31-36.46 0-16-7.24-29.22-21.69-39.69-14.46-10.45-38.3-21.83-71.53-34.15a565.08 565.08 0 0 1-55.84-23.53c-16.93-8.31-31.54-18-43.84-29.08a119 119 0 0 1-29.08-40.15c-7.08-15.69-10.61-34.91-10.61-57.69 0-44.3 16.3-79.22 48.92-104.76 32.6-25.52 76.91-38.3 132.91-38.3 28.3 0 55.38 2.62 81.22 7.84 25.85 5.24 45.23 10.32 58.15 15.23l-20.3 90.46c-12.32-5.54-28.01-10.62-47.08-15.23-19.08-4.62-41.23-6.93-66.45-6.93-22.77 0-41.23 3.85-55.38 11.54-14.16 7.7-21.23 19.54-21.23 35.54 0 8 1.38 15.08 4.15 21.23 2.77 6.15 7.53 11.85 14.31 17.07 6.76 5.23 15.69 10.47 26.77 15.69 11.07 5.23 24.6 10.61 40.6 16.15 26.46 9.85 48.93 19.54 67.39 29.08 18.46 9.55 33.69 20.3 45.69 32.3 12 12 20.76 25.7 26.3 41.08 5.54 15.38 8.3 33.84 8.3 55.38 0 46.15-17.07 81.08-51.22 104.76s-82.93 35.53-146.3 35.53c-42.45 0-76.6-3.55-102.45-10.61-25.84-7.07-44-12.77-54.46-17.08l19.39-93.22c16.61 6.78 36.46 13.24 59.53 19.38 23.08 6.16 49.38 9.23 78.92 9.23zm-3317.6 683.02c0 55.38-8.62 103.53-25.84 144.45-17.24 40.93-41.7 75.08-73.38 102.45-31.7 27.38-69.85 47.69-114.45 60.91-44.63 13.23-94 19.85-148.15 19.85-25.84 0-55.07-1.08-87.68-3.23-32.62-2.16-63.69-6.6-93.23-13.38v-621.18c29.54-6.77 60.92-11.08 94.15-12.92 33.23-1.85 62.77-2.77 88.61-2.77 53.53 0 102.45 6.31 146.76 18.92 44.3 12.62 82.29 32.3 113.99 59.07 31.68 26.77 56.14 60.61 73.38 101.53 17.22 40.93 25.84 89.69 25.84 146.3zm-426.43 224.29c6.77.62 15.7 1.08 26.77 1.38 11.08.32 26.15.46 45.23.46 78.14 0 136.45-19.84 174.9-59.53 38.46-39.69 57.7-95.21 57.7-166.6 0-72.6-18.78-128.3-56.3-167.06-37.55-38.77-95.7-58.15-174.45-58.15-34.47 0-59.08.92-73.84 2.77v446.73zm683.76-398.74c36.92 0 67.98 4.61 93.22 13.84 25.23 9.23 45.37 22.15 60.46 38.77 15.07 16.61 25.84 36.78 32.3 60.46 6.47 23.69 9.7 49.7 9.7 77.99v292.59c-17.24 3.7-43.24 8.16-78 13.38-34.77 5.22-74 7.85-117.68 7.85-28.93 0-55.38-2.77-79.38-8.3s-44.46-14.46-61.38-26.78c-16.93-12.3-30.15-28.3-39.69-48-9.54-19.68-14.3-43.98-14.3-72.9 0-27.7 5.38-51.08 16.15-70.16 10.76-19.06 25.38-34.6 43.84-46.6s39.83-20.62 64.15-25.85a361.7 361.7 0 0 1 76.14-7.85c12.3 0 25.23.78 38.77 2.31 13.53 1.55 28 4.16 43.38 7.85v-18.46c0-12.92-1.54-25.23-4.61-36.92a76.8 76.8 0 0 0-16.15-30.92c-7.7-8.92-17.86-15.84-30.46-20.77-12.62-4.92-28.47-7.39-47.54-7.39-25.84 0-49.54 1.85-71.07 5.54-21.55 3.7-39.08 8-52.6 12.92l-13.85-90.45c14.14-4.92 34.75-9.84 61.84-14.77 27.07-4.92 55.98-7.38 86.76-7.38zm9.23 416.27c34.45 0 60.6-1.84 78.45-5.54v-123.68c-6.15-1.85-15.08-3.69-26.76-5.54-11.7-1.84-24.62-2.77-38.77-2.77-12.31 0-24.77.93-37.38 2.77-12.62 1.85-24 5.24-34.15 10.16-10.15 4.93-18.32 11.85-24.46 20.76-6.16 8.93-9.23 20.17-9.23 33.7 0 26.46 8.3 44.76 24.92 54.91 16.62 10.16 39.07 15.23 67.38 15.23zm689.2-404.27c-49.75 183.37-107.5 349.51-173.2 498.42-12.32 27.69-24.96 51.37-37.9 71.07-12.93 19.69-27.4 36-43.42 48.92a154.84 154.84 0 0 1-53.59 28.15c-19.71 5.84-42.5 8.77-68.37 8.77-17.25 0-34.36-1.85-51.29-5.54-16.94-3.7-29.72-7.7-38.34-12l20.3-89.53c22.25 8.61 44.2 12.92 65.84 12.92 29.04 0 51.76-6.92 68.14-20.76 16.38-13.85 30.75-35.24 43.12-64.15-35.23-67.69-69.06-141.52-101.51-221.52-32.45-79.99-61.34-164.9-86.66-254.75h119.06a1595.76 1595.76 0 0 0 22.7 84 2588.58 2588.58 0 0 0 29.2 91.83c10.5 31.08 21.6 62 33.34 92.76a1747.64 1747.64 0 0 0 35.21 85.84c19.6-54.76 37.98-113.07 55.14-174.9a5890.11 5890.11 0 0 0 46.85-179.53h115.38zm190.97 402.43c29.53 0 51.06-3.54 64.6-10.62 13.53-7.07 20.31-19.22 20.31-36.46 0-16-7.24-29.22-21.69-39.69-14.46-10.45-38.3-21.83-71.53-34.15a564.67 564.67 0 0 1-55.84-23.53c-16.93-8.31-31.54-18-43.84-29.08a119 119 0 0 1-29.08-40.15c-7.08-15.69-10.61-34.91-10.61-57.69 0-44.3 16.3-79.22 48.92-104.76 32.6-25.52 76.9-38.3 132.9-38.3 28.3 0 55.39 2.62 81.23 7.84 25.85 5.24 45.23 10.32 58.15 15.23l-20.3 90.46c-12.32-5.54-28.01-10.62-47.08-15.23-19.08-4.62-41.23-6.93-66.45-6.93-22.77 0-41.23 3.85-55.38 11.54-14.16 7.7-21.23 19.54-21.23 35.54 0 8 1.38 15.08 4.15 21.23 2.77 6.15 7.53 11.85 14.31 17.07 6.76 5.23 15.69 10.47 26.77 15.69 11.07 5.23 24.6 10.61 40.6 16.15 26.46 9.85 48.93 19.54 67.39 29.08 18.46 9.55 33.69 20.3 45.69 32.3 12 12 20.76 25.7 26.3 41.08 5.54 15.38 8.3 33.84 8.3 55.38 0 46.15-17.07 81.08-51.22 104.76s-82.93 35.53-146.3 35.53c-42.46 0-76.6-3.55-102.45-10.61-25.84-7.07-44-12.77-54.46-17.08l19.39-93.22c16.61 6.78 36.46 13.24 59.53 19.38 23.08 6.16 49.38 9.23 78.92 9.23z"/></svg>